<?xml version="1.0" encoding="UTF-8" standalone="no"?>
<svg width="100%" height="100%" viewBox="0 0 356 404" version="1.1" xmlns="http://www.w3.org/2000/svg"
     xmlSpace="preserve"
     style="fill-rule:evenodd;clip-rule:evenodd;stroke-linejoin:round;stroke-miterlimit:2;">
    <g transform="matrix(0.203738,0,0,0.953819,-7.19403,0)">
        <rect id="Flowpipe" x="35.31" y="0" width="1746.52" height="423.41" style="fill:none;"/>
        <g id="Flowpipe1">
            <g id="Logo" transform="matrix(4.96566,0,0,1,-140.028,0)">
                <g id="LowerPipe" transform="matrix(0.98844,0,0,1.04842,35.3102,9.53529e-13)">
                    <path d="M208.167,245.631l-0.004,16.449c-0,30.597 -24.959,55.557 -55.553,55.553l-37.96,0.005c-15.273,0 -29.164,-6.242 -39.232,-16.31c-0.04,-0.04 47.4,-47.479 47.443,-47.444c2.604,2.089 6.527,3.154 10.482,3.2c7.023,0.082 14.145,-3.055 14.141,-9.394l0.003,-2.059l0,-17.58l-8.519,0c-5.472,0 -9.914,-4.442 -9.914,-9.914l-0,-15.206l97.557,-0l-0,15.237c-0,5.455 -4.429,9.883 -9.883,9.883l-8.561,0l-0,16.793l-0,0.787Z" style="fill:#222017;"/>
                </g>
                <g id="UpperPipe" transform="matrix(0.98844,0,0,1.04842,35.3102,1.90706e-12)">
                    <path d="M147.498,169.776l-0,-16.852l-0.06,0l0.004,-17.236c0,-30.597 24.959,-55.557 55.553,-55.553l37.96,-0.005c15.273,-0 29.164,6.242 39.232,16.31c0.04,0.04 -47.4,47.479 -47.443,47.444c-2.604,-2.089 -6.527,-3.154 -10.482,-3.2c-7.024,-0.082 -14.145,3.055 -14.141,9.394l-0.003,2.118l0.059,0l0,17.58l8.519,0c5.472,0 9.915,4.443 9.915,9.915l-0,15.206l-97.557,-0l-0,-15.238c-0,-5.454 4.428,-9.883 9.883,-9.883l8.561,0Z" style="fill:#4c82e6;"/>
                </g>
            </g>
        </g>
    </g>
</svg>
