<?xml version="1.0" encoding="UTF-8" standalone="no"?><!DOCTYPE svg PUBLIC "-//W3C//DTD SVG 1.1//EN">
<svg width="100%" height="100%" viewBox="0 0 1565 240" version="1.1" xmlns="http://www.w3.org/2000/svg"
     style="fill-rule:evenodd;clip-rule:evenodd;stroke-linejoin:round;stroke-miterlimit:2;">
    <rect id="Flowpipe" x="0" y="0" width="1564.2" height="239.5" style="fill:none;"/>
    <g id="Flowpipe1">
        <g id="Darkmode">
            <g id="Wordmark">
                <path id="E"
                      d="M1437.22,102.07L1437.22,93.964C1437.22,90.715 1439.87,88.067 1443.12,88.067L1518.61,88.067C1521.86,88.067 1524.51,90.715 1524.51,93.964L1524.51,96.172C1524.51,99.423 1521.86,102.07 1518.61,102.07L1437.22,102.07ZM1433.95,193.379L1556.61,193.379L1556.61,154.729L1443.12,154.729C1439.88,154.729 1437.22,152.081 1437.22,148.832L1437.22,140.723L1527.78,140.723C1547.27,140.723 1563.16,124.828 1563.16,105.338L1563.16,84.799C1563.16,65.308 1547.27,49.414 1527.78,49.414L1433.95,49.414C1414.46,49.414 1398.56,65.308 1398.56,84.799L1398.56,157.996C1398.56,177.487 1414.46,193.379 1433.95,193.379"
                      style="fill:#f7f7f7;"/>
                <path id="P"
                      d="M1251.56,155.552L1332.96,155.552C1336.2,155.552 1338.86,152.901 1338.86,149.656L1338.86,93.964C1338.86,90.719 1336.2,88.067 1332.96,88.067L1257.46,88.067C1254.22,88.067 1251.56,90.719 1251.56,93.964L1251.56,155.552ZM1377.51,84.799L1377.51,158.82C1377.51,178.312 1361.61,194.202 1342.12,194.202L1251.56,194.202L1251.56,238.507L1212.91,238.507L1212.91,84.799C1212.91,65.308 1228.81,49.414 1248.3,49.414L1342.12,49.414C1361.61,49.414 1377.51,65.308 1377.51,84.799Z"
                      style="fill:#f7f7f7;"/>
                <rect id="I" x="1153.53" y="49.414" width="38.656" height="144" style="fill:#f7f7f7;"/>
                <path id="P1"
                      d="M1006.71,155.552L1088.11,155.552C1091.35,155.552 1094.01,152.901 1094.01,149.656L1094.01,93.964C1094.01,90.719 1091.35,88.067 1088.11,88.067L1012.61,88.067C1009.37,88.067 1006.71,90.719 1006.71,93.964L1006.71,155.552ZM1132.65,84.799L1132.65,158.82C1132.65,178.312 1116.76,194.202 1097.27,194.202L1006.71,194.202L1006.71,238.507L968.059,238.507L968.059,84.799C968.059,65.308 983.957,49.414 1003.45,49.414L1097.27,49.414C1116.76,49.414 1132.65,65.308 1132.65,84.799Z"
                      style="fill:#f7f7f7;"/>
                <path id="W"
                      d="M910.378,193.413L778.584,193.413C759.094,193.413 743.197,177.518 743.197,158.028L743.197,49.413L781.847,49.413L781.847,115.498L781.852,115.498L781.847,129.603C781.847,129.938 781.847,130.269 781.852,130.595L781.852,148.863C781.852,152.107 784.504,154.76 787.749,154.76L825.867,154.76L825.867,49.413L864.519,49.413L864.519,154.76L901.212,154.76C904.459,154.76 907.11,152.107 907.11,148.863L907.11,130.595C907.11,130.269 907.116,129.938 907.116,129.603L907.11,115.498L907.116,115.498L907.11,49.413L945.76,49.413L945.76,158.028C945.76,177.518 929.863,193.413 910.378,193.413Z"
                      style="fill:#f7f7f7;"/>
                <path id="O"
                      d="M594.4,155.552L675.798,155.552C679.036,155.552 681.696,152.901 681.696,149.656L681.696,93.964C681.696,90.719 679.036,88.067 675.798,88.067L600.301,88.067C597.058,88.067 594.4,90.719 594.4,93.964L594.4,155.552ZM720.345,84.799L720.345,158.82C720.345,178.312 704.449,194.202 684.957,194.202L591.467,194.296C571.625,194.296 555.749,178.655 555.749,158.813L555.749,84.799C555.749,65.308 571.647,49.414 591.137,49.414L684.957,49.414C704.449,49.414 720.345,65.308 720.345,84.799Z"
                      style="fill:#f7f7f7;"/>
                <path id="L"
                      d="M454.567,193.379L533.307,193.379L533.616,154.726L463.732,154.726C460.485,154.726 457.834,152.07 457.834,148.829L458.027,49.414L419.073,49.414L419.178,157.994C419.178,177.484 435.075,193.379 454.567,193.379"
                      style="fill:#f7f7f7;"/>
                <path id="F"
                      d="M317.679,49.414L396.419,49.414L396.728,88.067L326.844,88.067C323.597,88.067 320.946,90.723 320.946,93.964L320.962,102.129L355.895,102.041L355.88,140.688L321.037,140.685L321.139,193.379L282.186,193.379L282.29,84.799C282.29,65.309 298.188,49.414 317.679,49.414"
                      style="fill:#f7f7f7;"/>
            </g>
            <g id="Logo">
                <path id="LowerPipe"
                      d="M133.749,166.501L133.745,182.95C133.745,213.547 108.786,238.506 78.192,238.502L40.232,238.507C24.959,238.508 11.068,232.266 1,222.198C0.96,222.158 48.4,174.719 48.443,174.754C51.047,176.842 54.97,177.908 58.925,177.954C65.948,178.035 73.07,174.899 73.066,168.559L73.069,166.501L73.069,148.921L64.55,148.921C59.078,148.921 54.636,144.479 54.636,139.007L54.636,123.8L152.193,123.8L152.193,139.038C152.193,144.493 147.764,148.921 142.31,148.921L133.749,148.921L133.749,165.714L133.749,166.501Z"
                      style="fill:#aaa;"/>
                <path id="UpperPipe"
                      d="M73.08,90.646L73.08,73.794L73.02,73.794L73.024,56.558C73.024,25.96 97.983,1.001 128.577,1.005L166.537,1C181.81,0.999 195.701,7.242 205.769,17.31C205.809,17.35 158.369,64.788 158.326,64.753C155.722,62.665 151.799,61.599 147.844,61.554C140.82,61.472 133.699,64.608 133.703,70.948L133.7,73.066L133.759,73.066L133.759,90.646L142.278,90.646C147.75,90.646 152.193,95.088 152.193,100.56L152.193,115.766L54.636,115.766L54.636,100.529C54.636,95.074 59.064,90.646 64.519,90.646L73.08,90.646Z"
                      style="fill:#a3c5f5;"/>
            </g>
        </g>
    </g>
</svg>