<?xml version="1.0" encoding="UTF-8" standalone="no"?><!DOCTYPE svg PUBLIC "-//W3C//DTD SVG 1.1//EN" "http://www.w3.org/Graphics/SVG/1.1/DTD/svg11.dtd"><svg width="100%" height="100%" viewBox="0 0 644 747" version="1.1" xmlns="http://www.w3.org/2000/svg" xmlns:xlink="http://www.w3.org/1999/xlink" xml:space="preserve" xmlns:serif="http://www.serif.com/" style="fill-rule:evenodd;clip-rule:evenodd;stroke-linejoin:round;stroke-miterlimit:2;"><rect id="Flowpipe-Logo" serif:id="Flowpipe Logo" x="-0" y="0" width="643.333" height="746.25" style="fill:none;"/><clipPath id="_clip1"><rect x="-0" y="0" width="643.333" height="746.25"/></clipPath><g clip-path="url(#_clip1)"><g id="LowerPipe"><path d="M416.934,520.004l-0.013,51.683c0,96.136 -78.39,174.56 -174.479,174.547l-119.223,0.016c-47.969,-0 -91.598,-19.612 -123.219,-51.246c-0.126,-0.126 148.872,-149.179 149.007,-149.069c8.179,6.564 20.5,9.91 32.922,10.054c22.058,0.258 44.426,-9.598 44.414,-29.516l0.009,-6.469l-0,-55.236l-26.756,-0c-17.186,-0 -31.138,-13.957 -31.138,-31.15l0,-47.777l306.404,-0l-0,47.874c-0,17.14 -13.911,31.053 -31.04,31.053l-26.888,-0l-0,55.236Z" style="fill:#222017;"/></g><g id="UpperPipe"><path d="M226.387,281.668l-0,-52.949l-0.189,-0l0.013,-54.156c-0,-96.136 78.39,-174.56 174.479,-174.547l119.223,-0.016c47.969,-0 91.597,19.612 123.219,51.246c0.125,0.126 -148.873,149.179 -149.008,149.069c-8.178,-6.564 -20.5,-9.91 -32.921,-10.054c-22.061,-0.258 -44.426,9.598 -44.414,29.516l-0.009,6.654l0.185,0l0,55.237l26.756,-0c17.187,-0 31.141,13.96 31.141,31.153l-0,47.777l-306.404,-0l0,-47.878c0,-17.136 13.908,-31.052 31.04,-31.052l26.889,-0Z" style="fill:#4c82e6;"/></g></g></svg>